<svg width="95" height="107" viewBox="0 0 95 107" fill="none" xmlns="http://www.w3.org/2000/svg">
<path d="M35 8.09017L38.2352 18.0471L38.7965 19.7746H40.6129H51.0822L42.6123 25.9283L41.1429 26.9959L41.7041 28.7234L44.9394 38.6803L36.4695 32.5266L35 31.459L33.5305 32.5266L25.0606 38.6803L28.2959 28.7234L28.8571 26.9959L27.3877 25.9283L18.9178 19.7746H29.3871H31.2035L31.7648 18.0471L35 8.09017Z" stroke="url(#paint0_linear_232_4)" stroke-width="5"/>
<path d="M1.656 72V55.831H4.784V72H1.656ZM11.799 72V55.831H14.927V72H11.799ZM3.634 65.031V62.271H12.673V65.031H3.634ZM23.1312 72.23C22.0118 72.23 20.9998 71.977 20.0952 71.471C19.2058 70.9497 18.4928 70.252 17.9562 69.378C17.4348 68.4887 17.1742 67.4997 17.1742 66.411C17.1742 65.3223 17.4348 64.3487 17.9562 63.49C18.4775 62.616 19.1905 61.926 20.0952 61.42C20.9998 60.8987 22.0042 60.638 23.1082 60.638C24.2428 60.638 25.2548 60.8987 26.1442 61.42C27.0488 61.926 27.7618 62.616 28.2832 63.49C28.8045 64.3487 29.0652 65.3223 29.0652 66.411C29.0652 67.4997 28.8045 68.4887 28.2832 69.378C27.7618 70.252 27.0488 70.9497 26.1442 71.471C25.2548 71.977 24.2505 72.23 23.1312 72.23ZM23.1082 69.424C23.6755 69.424 24.1738 69.3013 24.6032 69.056C25.0478 68.7953 25.3852 68.4427 25.6152 67.998C25.8605 67.538 25.9832 67.0167 25.9832 66.434C25.9832 65.8513 25.8605 65.3377 25.6152 64.893C25.3698 64.4483 25.0325 64.1033 24.6032 63.858C24.1738 63.5973 23.6755 63.467 23.1082 63.467C22.5562 63.467 22.0655 63.5973 21.6362 63.858C21.2068 64.1033 20.8695 64.4483 20.6242 64.893C20.3788 65.3377 20.2562 65.8513 20.2562 66.434C20.2562 67.0167 20.3788 67.538 20.6242 67.998C20.8695 68.4427 21.2068 68.7953 21.6362 69.056C22.0655 69.3013 22.5562 69.424 23.1082 69.424ZM31.0049 72V55.371H34.0179V72H31.0049ZM42.8515 72.23C42.0542 72.23 41.3335 72.0613 40.6895 71.724C40.0455 71.3867 39.5318 70.9267 39.1485 70.344C38.7652 69.7613 38.5582 69.1097 38.5275 68.389V64.433C38.5582 63.7123 38.7652 63.0683 39.1485 62.501C39.5472 61.9183 40.0685 61.466 40.7125 61.144C41.3565 60.822 42.0695 60.661 42.8515 60.661C43.8788 60.661 44.7988 60.914 45.6115 61.42C46.4242 61.926 47.0605 62.616 47.5205 63.49C47.9958 64.364 48.2335 65.353 48.2335 66.457C48.2335 67.5457 47.9958 68.527 47.5205 69.401C47.0605 70.275 46.4242 70.965 45.6115 71.471C44.7988 71.977 43.8788 72.23 42.8515 72.23ZM36.6875 72V55.371H39.7005V63.628L39.1945 66.296L39.6775 69.01V72H36.6875ZM42.3455 69.447C42.8975 69.447 43.3805 69.3243 43.7945 69.079C44.2238 68.8183 44.5535 68.4657 44.7835 68.021C45.0288 67.561 45.1515 67.032 45.1515 66.434C45.1515 65.8513 45.0288 65.3377 44.7835 64.893C44.5535 64.433 44.2238 64.0803 43.7945 63.835C43.3652 63.5743 42.8745 63.444 42.3225 63.444C41.7705 63.444 41.2798 63.5743 40.8505 63.835C40.4365 64.0803 40.1068 64.433 39.8615 64.893C39.6315 65.3377 39.5165 65.8513 39.5165 66.434C39.5165 67.032 39.6315 67.561 39.8615 68.021C40.1068 68.4657 40.4442 68.8183 40.8735 69.079C41.3028 69.3243 41.7935 69.447 42.3455 69.447ZM55.43 72.23C54.3107 72.23 53.2987 71.977 52.394 71.471C51.5047 70.9497 50.7917 70.252 50.255 69.378C49.7337 68.4887 49.473 67.4997 49.473 66.411C49.473 65.3223 49.7337 64.3487 50.255 63.49C50.7763 62.616 51.4893 61.926 52.394 61.42C53.2987 60.8987 54.303 60.638 55.407 60.638C56.5417 60.638 57.5537 60.8987 58.443 61.42C59.3477 61.926 60.0607 62.616 60.582 63.49C61.1033 64.3487 61.364 65.3223 61.364 66.411C61.364 67.4997 61.1033 68.4887 60.582 69.378C60.0607 70.252 59.3477 70.9497 58.443 71.471C57.5537 71.977 56.5493 72.23 55.43 72.23ZM55.407 69.424C55.9743 69.424 56.4727 69.3013 56.902 69.056C57.3467 68.7953 57.684 68.4427 57.914 67.998C58.1593 67.538 58.282 67.0167 58.282 66.434C58.282 65.8513 58.1593 65.3377 57.914 64.893C57.6687 64.4483 57.3313 64.1033 56.902 63.858C56.4727 63.5973 55.9743 63.467 55.407 63.467C54.855 63.467 54.3643 63.5973 53.935 63.858C53.5057 64.1033 53.1683 64.4483 52.923 64.893C52.6777 65.3377 52.555 65.8513 52.555 66.434C52.555 67.0167 52.6777 67.538 52.923 67.998C53.1683 68.4427 53.5057 68.7953 53.935 69.056C54.3643 69.3013 54.855 69.424 55.407 69.424ZM63.3037 72V60.891H66.3167V72H63.3037ZM66.3167 65.859L65.1437 65.077C65.2817 63.7123 65.6804 62.639 66.3397 61.857C66.9991 61.0597 67.9497 60.661 69.1917 60.661C69.7284 60.661 70.2114 60.753 70.6407 60.937C71.0701 61.1057 71.4611 61.3893 71.8137 61.788L69.9277 63.95C69.7591 63.766 69.5521 63.628 69.3067 63.536C69.0767 63.444 68.8084 63.398 68.5017 63.398C67.8577 63.398 67.3287 63.605 66.9147 64.019C66.5161 64.4177 66.3167 65.031 66.3167 65.859ZM80.3022 72V65.629C80.3022 64.9697 80.0952 64.433 79.6812 64.019C79.2672 63.605 78.7305 63.398 78.0712 63.398C77.6418 63.398 77.2585 63.49 76.9212 63.674C76.5838 63.858 76.3155 64.1187 76.1162 64.456C75.9322 64.7933 75.8402 65.1843 75.8402 65.629L74.6672 65.031C74.6672 64.157 74.8512 63.398 75.2192 62.754C75.6025 62.0947 76.1238 61.581 76.7832 61.213C77.4578 60.845 78.2168 60.661 79.0602 60.661C79.8728 60.661 80.6012 60.868 81.2452 61.282C81.8892 61.6807 82.3952 62.2097 82.7632 62.869C83.1312 63.513 83.3152 64.2107 83.3152 64.962V72H80.3022ZM72.8272 72V60.891H75.8402V72H72.8272Z" fill="url(#paint1_linear_232_4)"/>
<path d="M7.924 84.002V82.2H10.695C11.2617 82.2 11.698 82.0583 12.004 81.775C12.3213 81.4803 12.48 81.078 12.48 80.568C12.48 80.1033 12.3213 79.718 12.004 79.412C11.698 79.0947 11.2617 78.936 10.695 78.936H7.924V77.049H10.899C11.6697 77.049 12.344 77.202 12.922 77.508C13.5113 77.8027 13.9647 78.2107 14.282 78.732C14.6107 79.2533 14.775 79.854 14.775 80.534C14.775 81.2367 14.6107 81.8487 14.282 82.37C13.9647 82.88 13.5113 83.2823 12.922 83.577C12.3327 83.8603 11.647 84.002 10.865 84.002H7.924ZM6.224 89V77.049H8.536V89H6.224ZM12.752 89L8.808 83.832L10.933 83.169L15.557 89H12.752ZM20.3222 89.17C19.4608 89.17 18.6958 88.9887 18.0272 88.626C17.3585 88.252 16.8258 87.742 16.4292 87.096C16.0438 86.45 15.8512 85.7133 15.8512 84.886C15.8512 84.07 16.0382 83.3447 16.4122 82.71C16.7975 82.064 17.3188 81.554 17.9762 81.18C18.6335 80.7947 19.3645 80.602 20.1692 80.602C20.9625 80.602 21.6595 80.7833 22.2602 81.146C22.8722 81.4973 23.3482 81.9847 23.6882 82.608C24.0395 83.22 24.2152 83.917 24.2152 84.699C24.2152 84.8463 24.2038 84.9993 24.1812 85.158C24.1698 85.3053 24.1415 85.4753 24.0962 85.668L17.1942 85.685V84.019L23.0592 84.002L22.1582 84.699C22.1355 84.2117 22.0448 83.8037 21.8862 83.475C21.7388 83.1463 21.5178 82.897 21.2232 82.727C20.9398 82.5457 20.5885 82.455 20.1692 82.455C19.7272 82.455 19.3418 82.557 19.0132 82.761C18.6845 82.9537 18.4295 83.2313 18.2482 83.594C18.0782 83.9453 17.9932 84.3647 17.9932 84.852C17.9932 85.3507 18.0838 85.787 18.2652 86.161C18.4578 86.5237 18.7298 86.807 19.0812 87.011C19.4325 87.2037 19.8405 87.3 20.3052 87.3C20.7245 87.3 21.1042 87.232 21.4442 87.096C21.7842 86.9487 22.0788 86.7333 22.3282 86.45L23.6372 87.759C23.2405 88.2237 22.7532 88.575 22.1752 88.813C21.6085 89.051 20.9908 89.17 20.3222 89.17ZM25.5924 89V76.709H27.8194V89H25.5924ZM33.6516 89.17C32.8243 89.17 32.0763 88.983 31.4076 88.609C30.7503 88.2237 30.2233 87.708 29.8266 87.062C29.4413 86.4047 29.2486 85.6737 29.2486 84.869C29.2486 84.0643 29.4413 83.3447 29.8266 82.71C30.212 82.064 30.739 81.554 31.4076 81.18C32.0763 80.7947 32.8186 80.602 33.6346 80.602C34.4733 80.602 35.2213 80.7947 35.8786 81.18C36.5473 81.554 37.0743 82.064 37.4596 82.71C37.845 83.3447 38.0376 84.0643 38.0376 84.869C38.0376 85.6737 37.845 86.4047 37.4596 87.062C37.0743 87.708 36.5473 88.2237 35.8786 88.609C35.2213 88.983 34.479 89.17 33.6516 89.17ZM33.6346 87.096C34.054 87.096 34.4223 87.0053 34.7396 86.824C35.0683 86.6313 35.3176 86.3707 35.4876 86.042C35.669 85.702 35.7596 85.3167 35.7596 84.886C35.7596 84.4553 35.669 84.0757 35.4876 83.747C35.3063 83.4183 35.057 83.1633 34.7396 82.982C34.4223 82.7893 34.054 82.693 33.6346 82.693C33.2266 82.693 32.864 82.7893 32.5466 82.982C32.2293 83.1633 31.98 83.4183 31.7986 83.747C31.6173 84.0757 31.5266 84.4553 31.5266 84.886C31.5266 85.3167 31.6173 85.702 31.7986 86.042C31.98 86.3707 32.2293 86.6313 32.5466 86.824C32.864 87.0053 33.2266 87.096 33.6346 87.096ZM43.3474 89.17C42.5087 89.17 41.755 88.983 41.0864 88.609C40.4177 88.235 39.8907 87.725 39.5054 87.079C39.12 86.433 38.9274 85.7077 38.9274 84.903C38.9274 84.087 39.12 83.356 39.5054 82.71C39.8907 82.064 40.4177 81.554 41.0864 81.18C41.7664 80.7947 42.52 80.602 43.3474 80.602C43.9934 80.602 44.5884 80.721 45.1324 80.959C45.6764 81.197 46.1467 81.537 46.5434 81.979L45.1154 83.424C44.9 83.186 44.6394 83.0047 44.3334 82.88C44.0387 82.7553 43.71 82.693 43.3474 82.693C42.9394 82.693 42.571 82.7893 42.2424 82.982C41.925 83.1633 41.67 83.4183 41.4774 83.747C41.296 84.0643 41.2054 84.444 41.2054 84.886C41.2054 85.3167 41.296 85.702 41.4774 86.042C41.67 86.3707 41.925 86.6313 42.2424 86.824C42.571 87.0053 42.9394 87.096 43.3474 87.096C43.7214 87.096 44.0557 87.0337 44.3504 86.909C44.6564 86.773 44.917 86.5803 45.1324 86.331L46.5774 87.776C46.158 88.2293 45.6764 88.575 45.1324 88.813C44.5884 89.051 43.9934 89.17 43.3474 89.17ZM51.0899 89.17C50.3419 89.17 49.6676 88.983 49.0669 88.609C48.4663 88.235 47.9959 87.725 47.6559 87.079C47.3159 86.433 47.1459 85.7077 47.1459 84.903C47.1459 84.087 47.3159 83.356 47.6559 82.71C47.9959 82.064 48.4663 81.554 49.0669 81.18C49.6676 80.806 50.3419 80.619 51.0899 80.619C51.6793 80.619 52.2063 80.738 52.6709 80.976C53.1356 81.214 53.5039 81.5483 53.7759 81.979C54.0593 82.3983 54.2123 82.8743 54.2349 83.407V86.365C54.2123 86.909 54.0593 87.3907 53.7759 87.81C53.5039 88.2293 53.1356 88.5637 52.6709 88.813C52.2063 89.051 51.6793 89.17 51.0899 89.17ZM51.4979 87.113C52.1213 87.113 52.6256 86.909 53.0109 86.501C53.3963 86.0817 53.5889 85.5433 53.5889 84.886C53.5889 84.4553 53.4983 84.0757 53.3169 83.747C53.1469 83.407 52.9033 83.1463 52.5859 82.965C52.2799 82.7723 51.9173 82.676 51.4979 82.676C51.0899 82.676 50.7273 82.7723 50.4099 82.965C50.1039 83.1463 49.8603 83.407 49.6789 83.747C49.5089 84.0757 49.4239 84.4553 49.4239 84.886C49.4239 85.328 49.5089 85.719 49.6789 86.059C49.8603 86.3877 50.1039 86.6483 50.4099 86.841C50.7273 87.0223 51.0899 87.113 51.4979 87.113ZM53.4699 89V86.79L53.8269 84.784L53.4699 82.812V80.789H55.6799V89H53.4699ZM58.8571 89V77.372H61.0841V89H58.8571ZM56.9361 82.744V80.789H63.0051V82.744H56.9361ZM67.9853 89.17C67.1239 89.17 66.3589 88.9887 65.6903 88.626C65.0216 88.252 64.4889 87.742 64.0923 87.096C63.7069 86.45 63.5143 85.7133 63.5143 84.886C63.5143 84.07 63.7013 83.3447 64.0753 82.71C64.4606 82.064 64.9819 81.554 65.6393 81.18C66.2966 80.7947 67.0276 80.602 67.8323 80.602C68.6256 80.602 69.3226 80.7833 69.9233 81.146C70.5353 81.4973 71.0113 81.9847 71.3513 82.608C71.7026 83.22 71.8783 83.917 71.8783 84.699C71.8783 84.8463 71.8669 84.9993 71.8443 85.158C71.8329 85.3053 71.8046 85.4753 71.7593 85.668L64.8573 85.685V84.019L70.7223 84.002L69.8213 84.699C69.7986 84.2117 69.7079 83.8037 69.5493 83.475C69.4019 83.1463 69.1809 82.897 68.8863 82.727C68.6029 82.5457 68.2516 82.455 67.8323 82.455C67.3903 82.455 67.0049 82.557 66.6763 82.761C66.3476 82.9537 66.0926 83.2313 65.9113 83.594C65.7413 83.9453 65.6563 84.3647 65.6563 84.852C65.6563 85.3507 65.7469 85.787 65.9283 86.161C66.1209 86.5237 66.3929 86.807 66.7443 87.011C67.0956 87.2037 67.5036 87.3 67.9683 87.3C68.3876 87.3 68.7673 87.232 69.1073 87.096C69.4473 86.9487 69.7419 86.7333 69.9913 86.45L71.3003 87.759C70.9036 88.2237 70.4163 88.575 69.8383 88.813C69.2716 89.051 68.6539 89.17 67.9853 89.17Z" fill="url(#paint2_linear_232_4)"/>
<defs>
<linearGradient id="paint0_linear_232_4" x1="35" y1="0" x2="35" y2="50" gradientUnits="userSpaceOnUse">
<stop stop-color="#CF142B"/>
</linearGradient>
<linearGradient id="paint1_linear_232_4" x1="0" y1="66.5" x2="200" y2="66.5" gradientUnits="userSpaceOnUse">
<stop offset="1" stop-color="#CF142B"/>
</linearGradient>
<linearGradient id="paint2_linear_232_4" x1="5" y1="89.5" x2="100" y2="89.5" gradientUnits="userSpaceOnUse">
<stop stop-color="white"/>
<stop offset="1" stop-color="#CF142B"/>
</linearGradient>
</defs>
</svg>
